<?xml version="1.0" encoding="UTF-8"?><svg id="Capa_1" xmlns="http://www.w3.org/2000/svg" viewBox="0 0 512.99 208.88"><defs><style>.cls-1,.cls-2{fill:#092f61;}.cls-1,.cls-3{fill-rule:evenodd;}.cls-3{fill:#dd0029;}.cls-4{fill:#fff;}</style></defs><path class="cls-3" d="M24.21,142.76l12.06,60.95c.52,2.62,2.41,4.72,5.07,4.72h1.91c2.66,0,4.56-2.1,5.07-4.72l12.06-60.95h3.92c1.56,0,2.81-1.31,2.81-2.86s-1.26-2.86-2.81-2.86H20.29c-1.56,0-2.86,1.31-2.86,2.86s1.31,2.86,2.86,2.86h3.92Z"/><path class="cls-3" d="M77.66,109.15c-1.21,9.9-7.13,18.64-16.07,23.41H23.01c-8.94-4.77-14.87-13.51-16.12-23.41h70.78Z"/><path class="cls-1" d="M36.27,203.71c.52,2.62,2.41,4.72,5.07,4.72h.31v-65.67h18.73s0,0,0,0h3.92c1.56,0,2.81-1.31,2.81-2.86s-1.26-2.86-2.81-2.86H20.29c-1.56,0-2.86,1.31-2.86,2.86s1.31,2.86,2.86,2.86"/><path class="cls-1" d="M42.29,98.3h38.73c1.96,0,3.52,1.56,3.52,3.52s-1.56,3.57-3.52,3.57H3.57c-1.96,0-3.57-1.61-3.57-3.57s1.61-3.52,3.57-3.52h38.73Z"/><path class="cls-1" d="M46.28,109.15H6.88c1.26,9.9,7.18,18.64,16.12,23.41h23.27v-23.41Z"/><path class="cls-3" d="M66.56,54.5c1.31-10.35.05-20.54-5.02-29.69-2.36-4.82-8.24-11.75-15.47-16.48C36.67,2.01,28.23.15,27.78,0c.05.1,9.85,10.65,3.52,23.81-2.76,5.73-6.43,7.84-10.45,14.01-1.36,2.26-2.01,3.06-3.06,5.63-1.51,3.47-2.36,7.08-2.41,10.8.1,5.48,1.31,7.23,1.41,7.64-4.32-3.92-9.29-9.85-7.23-15.22C-.35,60.58,1.46,82.48,25.17,93.13c.95.45,1.46.65,1.56.7-2.21-1.76-3.72-4.02-4.72-6.63-1.51-3.82-1.46-7.18-1.46-7.28.1.1,7.18,15.17,17.88,13.66-2.86-1.96-3.72-4.92-3.42-8.39.8-8.89,9.59-20.19,9.64-20.29.05.1,16.07,18.48,6.43,27.93,11.65-3.21,15.02-16.63,15.02-16.63,0,.1,1.05,11.1-4.12,17.13,2.26-1.11,4.57-2.46,6.63-3.92,24.91-18.18,3.97-48.22,1.71-51.24-.05,4.87-.7,8.89-1.36,11.3-.55,2.01-1.36,3.82-2.41,5.02h0ZM12.66,45.56c-4.72-6.53.15-15.62,4.42-22.2,1.61-2.51,3.57-5.32,4.97-7.89,2.26-4.12,2.01-5.78,2.16-6.83,0,.15.4,1.36.5,3.11.55,12.46-15.47,24.91-12.06,33.81h0Z"/><polygon class="cls-4" points="49.81 132.56 34.19 132.56 31.35 109.15 52.14 109.15 49.81 132.56"/><polygon class="cls-4" points="43.25 208.88 41.34 208.88 35.28 142.76 48.9 142.76 43.25 208.88"/><path class="cls-2" d="M158.92,124.53c0,10.19-6.77,22.66-25.35,22.66h-5.54l-2.44,17.69h-16.47l7.91-56.74h20.05c13.61,0,21.85,5.63,21.85,16.39ZM141.96,125.51c0-3.67-1.96-5.71-6.6-5.71h-3.51l-2.2,15.57h3.75c6.93,0,8.56-6.19,8.56-9.86Z"/><path class="cls-2" d="M181.58,153.88h-13.29l-3.59,11.01h-17.2l24.13-56.74h19.73l8.23,56.74h-17.44l-.57-11.01ZM180.93,142.14l-1.31-23.48-7.58,23.48h8.89Z"/><path class="cls-2" d="M238.98,141.98l10.19,22.91h-17.93l-7.5-20.22h-3.34l-2.77,20.22h-16.46l7.91-56.74h20.46c14.18,0,21.52,6.28,21.52,15.65,0,6.93-1.88,12.96-12.07,18.18ZM222.02,133.42h4.24c5.79,0,7.83-4.48,7.83-8.56,0-3.59-2.28-5.22-6.6-5.22h-3.59l-1.87,13.78Z"/><path class="cls-2" d="M267.51,164.88h-16.46l7.91-56.74h16.47l-7.91,56.74ZM282.35,97.14l-21.19,7.26-3.42-7.83,19.73-11.17,4.89,11.74Z"/><path class="cls-2" d="M322.54,114.34l-8.32,8.56c-3.34-3.02-6.93-4.48-11.25-4.48s-6.77,1.88-6.77,4.57,2.04,3.75,8.89,6.03c9.86,3.34,14.35,8.4,14.35,16.47,0,9.78-6.36,21.03-25.43,21.03-10.52,0-17.53-4.16-21.93-8.64l9.21-9.38c3.51,3.51,7.66,5.46,13.12,5.46,4.97,0,7.58-1.96,7.58-5.38,0-2.94-1.87-4.81-7.99-6.93-11.33-3.75-15.16-9.21-15.16-16.39,0-9.38,7.01-18.75,23.48-18.75,8.64,0,15.33,2.85,20.22,7.83Z"/><path class="cls-2" d="M380.35,123.15c0,6.85-1.96,14.35-23.97,29.75l21.03-.08-3.34,12.06h-37.25l1.39-11.17c22.42-19.08,25.68-22.91,25.68-28.69,0-3.02-2.04-4.81-5.14-4.81-3.59,0-6.28,1.88-9.86,5.46l-8.31-7.99c5.54-5.95,12.23-9.54,21.19-9.54,12.47,0,18.59,6.77,18.59,15Z"/><path class="cls-2" d="M408.88,108.15c12.06,0,18.75,7.58,18.75,21.52s-5.79,36.85-26.25,36.85c-12.15,0-18.75-7.83-18.75-21.85,0-14.75,5.79-36.52,26.25-36.52ZM407.98,119.8c-7.17,0-9.62,17.69-9.62,28.21,0,5.14,1.47,6.77,4,6.77,7.09,0,9.62-18.02,9.62-28.53,0-5.14-1.55-6.44-3.99-6.44Z"/><path class="cls-2" d="M469.86,123.15c0,6.85-1.96,14.35-23.97,29.75l21.03-.08-3.34,12.06h-37.25l1.39-11.17c22.42-19.08,25.68-22.91,25.68-28.69,0-3.02-2.04-4.81-5.14-4.81-3.59,0-6.28,1.88-9.86,5.46l-8.31-7.99c5.54-5.95,12.23-9.54,21.19-9.54,12.47,0,18.59,6.77,18.59,15Z"/><path class="cls-2" d="M511.36,153.96h-5.54l-1.55,10.92h-15.49l1.47-10.92h-22.91l1.47-10.52,19.48-35.7,13.13,4.89-15.33,29.43h5.95l3.51-12.06h13.61l-1.71,12.06h5.55l-1.63,11.9Z"/><path class="cls-2" d="M117.54,76.19c-.98,6.92-5.38,9.28-10.1,10.77l-1.14-4.6c3.65-1.38,4.48-3.26,4.91-6.53l3.22-22.8h6.33l-3.22,23.16Z"/><path class="cls-2" d="M122.39,74.3l2.12-14.9h6.09l-1.93,13.92c-.31,2.08.27,2.71,1.38,2.71,1.45,0,2.87-1.57,4.01-3.3l1.85-13.33h6.09l-2.91,20.87h-5.27l.12-3.11c-1.77,2.28-3.93,3.77-6.6,3.77-3.85,0-5.5-2.59-4.95-6.64Z"/><path class="cls-2" d="M150.15,72.69c.16,2.79,1.69,3.69,3.73,3.69,1.77,0,3.38-.63,5.31-1.93l2.2,3.69c-2.28,1.65-5.07,2.79-8.3,2.79-6.09,0-9.08-3.54-9.08-8.84,0-5.66,3.07-13.37,11.83-13.37,5.07,0,7.71,2.55,7.71,5.7,0,5.86-6.84,7.59-13.4,8.26ZM157.38,64.71c0-.87-.47-1.85-2.01-1.85-2.99,0-4.4,3.07-4.95,6.05,5.23-.35,6.96-2.24,6.96-4.21Z"/><path class="cls-2" d="M185.35,60.93l-2.59,17.73c-1.06,7.35-4.4,10.38-10.97,10.38-2.6,0-5.58-.91-7.86-2.32l2.09-4.05c1.92,1.06,3.89,1.65,5.66,1.65,2.28,0,4.48-.67,5.07-4.76l.27-2.01c-1.37,1.57-3.26,2.71-5.5,2.71-4.48,0-6.84-3.3-6.84-8.1,0-5.78,3.19-13.45,12.15-13.45,2.83,0,5.82.71,8.53,2.2ZM171,72.02c0,2.83,1.1,3.66,2.44,3.66,1.57,0,2.91-1.18,4.09-2.91l1.46-9.24c-.82-.27-1.46-.39-2.36-.39-4.17,0-5.62,5.19-5.62,8.88Z"/><path class="cls-2" d="M187.4,72.06c0-5.82,2.83-13.33,11.64-13.33,5.54,0,8.76,3.42,8.73,8.88-.04,5.74-2.87,13.33-11.64,13.33-5.54,0-8.73-3.34-8.73-8.88ZM201.52,67.22c0-2.75-.98-3.93-2.91-3.93-4.13,0-4.95,5.97-4.95,9.16,0,2.75.94,3.93,2.91,3.93,4.09,0,4.91-5.97,4.95-9.16Z"/><path class="cls-2" d="M227.16,61.4l-2.71,3.34c-1.49-1.02-3.26-1.61-4.92-1.61-1.85,0-2.79.71-2.79,1.73,0,1.1.87,1.45,4.05,2.48,3.5,1.14,5.43,3.07,5.43,6.33,0,3.89-2.95,7.27-9.36,7.27-3.74,0-6.88-1.45-8.69-3.42l3.11-3.22c1.37,1.22,3.26,2.2,5.62,2.2,2.2,0,3.22-.94,3.22-2.08,0-1.38-.83-1.77-4.13-2.91-3.58-1.22-5.31-2.95-5.31-6.05,0-3.58,3.07-6.72,8.81-6.72,3.15,0,5.74,1.06,7.67,2.67Z"/><path class="cls-2" d="M262.55,63.53c0,7.31-3.34,17.41-14.19,17.41-6.64,0-10.42-4.09-10.42-11.16s3.38-17.42,14.23-17.42c6.6,0,10.38,4.05,10.38,11.17ZM244.47,70.25c0,4.33,1.53,5.98,4.32,5.98,5.94,0,7.23-8.69,7.23-13.25,0-4.21-1.49-5.9-4.32-5.9-5.94,0-7.23,8.69-7.23,13.17Z"/><path class="cls-2" d="M270.79,74.65c-.12,1.02.2,1.38.82,1.38.36,0,.67-.08,1.02-.2l.74,4.32c-1.14.51-2.59.79-3.93.79-3.5,0-5.35-2.12-4.76-6.13l3.34-23.71,6.13-.67-3.38,24.22Z"/><path class="cls-2" d="M281.56,80.27h-6.09l2.91-20.87h6.1l-2.91,20.87ZM287.93,52.09l-9.63,3.74-1.37-3.19,9.12-5.19,1.89,4.64Z"/><path class="cls-2" d="M316.56,65.1l-2.12,15.18h-6.09l1.97-13.8c.31-2.2-.31-2.67-1.14-2.67-1.41,0-2.83,1.97-4.09,4.76l-1.65,11.71h-6.1l1.97-13.8c.31-2.2-.35-2.67-1.18-2.67-1.37,0-2.87,2.01-4.05,4.91l-1.61,11.56h-6.09l2.91-20.87h5.31l-.12,3.42c1.69-2.55,3.93-4.09,6.53-4.09,2.44,0,4.17,1.38,4.56,3.89,1.65-2.4,4.05-3.89,6.49-3.89,3.22,0,5.07,2.4,4.52,6.37Z"/><path class="cls-2" d="M321.96,59.4h5.39v2.32c2.12-2.24,4.25-2.99,6.13-2.99,4.25,0,6.45,2.95,6.45,8.14,0,6.02-2.79,14.07-11.09,14.07-1.73,0-2.87-.27-3.74-.59l-1.18,8.02-6.09.67,4.13-29.64ZM333.67,66.99c0-2.91-1.1-3.69-2.52-3.69-1.49,0-2.79.9-3.97,2.4l-1.42,10.22c.79.32,1.57.51,2.64.51,3.85,0,5.27-5.5,5.27-9.43Z"/><path class="cls-2" d="M348,80.27h-6.09l2.91-20.87h6.1l-2.91,20.87ZM345.24,52.32c0-2.24,1.77-3.89,4.05-3.89,1.97,0,3.26,1.3,3.26,3.11,0,2.24-1.77,3.93-4.05,3.93-1.97,0-3.26-1.34-3.26-3.14Z"/><path class="cls-2" d="M371.27,61.4l-3.03,3.54c-1.14-1.06-2.28-1.45-3.62-1.45-4.25,0-5.31,5.15-5.31,8.69,0,2.95,1.3,3.85,3.26,3.85,1.49,0,2.59-.51,4.13-1.45l2.28,3.97c-2.08,1.53-4.4,2.4-7.19,2.4-5.62,0-8.89-3.5-8.89-9s3.19-13.21,11.68-13.21c2.67,0,4.95.9,6.68,2.67Z"/><path class="cls-2" d="M370.85,72.06c0-5.82,2.83-13.33,11.64-13.33,5.54,0,8.76,3.42,8.73,8.88-.04,5.74-2.87,13.33-11.64,13.33-5.54,0-8.73-3.34-8.73-8.88ZM384.96,67.22c0-2.75-.98-3.93-2.91-3.93-4.13,0-4.95,5.97-4.95,9.16,0,2.75.94,3.93,2.91,3.93,4.09,0,4.91-5.97,4.95-9.16Z"/><path class="cls-2" d="M410.61,61.4l-2.71,3.34c-1.49-1.02-3.26-1.61-4.92-1.61-1.85,0-2.79.71-2.79,1.73,0,1.1.87,1.45,4.05,2.48,3.5,1.14,5.43,3.07,5.43,6.33,0,3.89-2.95,7.27-9.36,7.27-3.74,0-6.88-1.45-8.69-3.42l3.11-3.22c1.37,1.22,3.26,2.2,5.62,2.2,2.2,0,3.22-.94,3.22-2.08,0-1.38-.83-1.77-4.13-2.91-3.58-1.22-5.31-2.95-5.31-6.05,0-3.58,3.07-6.72,8.81-6.72,3.15,0,5.74,1.06,7.67,2.67Z"/></svg>